<?xml version="1.0" encoding="iso-8859-1"?>
<!-- Generator: Adobe Illustrator 19.0.0, SVG Export Plug-In . SVG Version: 6.00 Build 0)  -->
<svg version="1.1" id="Layer_1" xmlns="http://www.w3.org/2000/svg" xmlns:xlink="http://www.w3.org/1999/xlink" x="0px" y="0px"
	 viewBox="0 0 512 512" style="enable-background:new 0 0 512 512;" xml:space="preserve">
<g>
	<g>
		<path d="M437.012,74.981C388.661,26.628,324.373,0,255.994,0c-68.381,0-132.668,26.628-181.02,74.981
			C9.451,140.503-15.57,236.653,9.676,325.907c1.142,4.041,5.343,6.39,9.386,5.248c4.04-1.143,6.39-5.345,5.247-9.386
			c-5.66-20.012-8.628-40.391-9.041-60.661c11.648-0.443,23.162-1.666,34.48-3.639c-0.707,2.986-2.03,5.815-3.97,8.31
			c-2.578,3.315-1.981,8.093,1.333,10.671c1.388,1.079,3.031,1.602,4.663,1.602c2.266,0,4.509-1.009,6.007-2.936
			c4.741-6.095,7.389-13.353,7.73-20.913c8.399-2.017,16.669-4.457,24.787-7.306c-0.308,2.311-1.037,4.567-2.203,6.666
			c-2.04,3.671-0.717,8.3,2.954,10.339c1.17,0.65,2.436,0.958,3.686,0.958c2.672,0,5.264-1.411,6.654-3.913
			c3.424-6.162,4.819-13.071,4.114-19.939c8.054-3.425,15.929-7.274,23.602-11.525c0.012,1.821-0.258,3.65-0.851,5.427
			c-1.328,3.984,0.825,8.29,4.81,9.618c0.798,0.266,1.608,0.392,2.406,0.392c3.184,0,6.15-2.016,7.213-5.201
			c2.038-6.114,2.185-12.55,0.495-18.623c7.588-4.867,14.936-10.162,22.029-15.854c0.281,1.505,0.341,3.058,0.166,4.621
			c-0.464,4.174,2.544,7.933,6.718,8.397c0.285,0.031,0.569,0.048,0.849,0.048c3.823,0,7.116-2.876,7.548-6.764
			c0.653-5.879-0.373-11.686-2.903-16.877c2.967-2.704,5.882-5.48,8.739-8.337c4.226-4.226,8.277-8.58,12.168-13.043
			c0.516,1.286,0.883,2.652,1.043,4.095c0.432,3.888,3.725,6.766,7.548,6.764c0.28,0,0.564-0.015,0.849-0.048
			c4.174-0.464,7.181-4.224,6.718-8.397c-0.626-5.625-2.74-10.727-5.899-14.97c6.279-8.189,12.029-16.707,17.232-25.515
			c0.971,1.354,1.746,2.859,2.288,4.485c1.063,3.187,4.029,5.201,7.213,5.201c0.797,0,1.608-0.127,2.406-0.392
			c3.984-1.328,6.137-5.634,4.81-9.619c-1.787-5.36-4.891-10.042-8.995-13.707c4.493-8.837,8.451-17.927,11.875-27.223
			c1.687,1.428,3.16,3.159,4.296,5.202c1.39,2.501,3.981,3.912,6.654,3.912c1.249,0,2.516-0.308,3.686-0.958
			c3.671-2.04,4.993-6.669,2.954-10.339c-3.075-5.535-7.477-9.872-12.588-12.849c2.757-9.224,5.005-18.621,6.708-28.162
			c2.682,1.417,5.066,3.381,6.984,5.847c1.5,1.927,3.741,2.936,6.008,2.936c1.631,0,3.275-0.523,4.663-1.602
			c3.315-2.578,3.912-7.356,1.334-10.671c-4.377-5.627-10.153-9.768-16.713-12.095c0.762-6.587,1.279-13.228,1.533-19.915
			c62.405,1.291,120.885,26.191,165.158,70.464c44.273,44.273,69.174,102.751,70.464,165.156
			c-6.695,0.254-13.342,0.772-19.937,1.535c-2.275-6.396-6.326-12.241-12.071-16.708c-3.315-2.579-8.094-1.981-10.671,1.334
			c-2.578,3.315-1.981,8.093,1.334,10.671c2.502,1.946,4.444,4.343,5.835,6.979c-9.53,1.7-18.916,3.947-28.129,6.699
			c-3.044-5.226-7.444-9.561-12.869-12.574c-3.67-2.04-8.301-0.717-10.339,2.954c-2.04,3.671-0.717,8.3,2.954,10.339
			c2.015,1.119,3.758,2.579,5.207,4.285c-9.3,3.425-18.395,7.384-27.235,11.878c-3.664-4.1-8.343-7.201-13.701-8.988
			c-3.982-1.329-8.289,0.825-9.619,4.809c-1.328,3.984,0.825,8.29,4.81,9.618c1.622,0.541,3.125,1.314,4.477,2.282
			c-8.807,5.202-17.326,10.952-25.515,17.231c-4.241-3.154-9.341-5.267-14.963-5.892c-4.165-0.463-7.932,2.544-8.397,6.718
			s2.544,7.933,6.718,8.397c1.438,0.16,2.801,0.525,4.084,1.039c-4.462,3.89-8.815,7.941-13.04,12.164
			c-2.857,2.857-5.634,5.782-8.343,8.763c-5.067-2.467-10.863-3.585-16.864-2.919c-4.174,0.463-7.181,4.224-6.718,8.397
			c0.464,4.174,4.218,7.18,8.397,6.718c1.585-0.175,3.14-0.103,4.63,0.178c-5.655,7.078-10.924,14.436-15.782,22.042
			c-6.096-1.714-12.562-1.577-18.703,0.47c-3.984,1.328-6.137,5.634-4.81,9.619c1.328,3.983,5.635,6.138,9.619,4.809
			c1.814-0.604,3.68-0.873,5.537-0.848c-4.237,7.671-8.071,15.556-11.502,23.614c-6.911-0.736-13.869,0.655-20.07,4.1
			c-3.671,2.039-4.994,6.668-2.954,10.339c2.039,3.67,6.667,4.993,10.339,2.954c2.136-1.186,4.436-1.926,6.79-2.223
			c-2.869,8.135-5.326,16.422-7.363,24.826c-7.375,0.324-14.721,2.844-20.979,7.71c-3.315,2.578-3.912,7.356-1.334,10.671
			c2.577,3.314,7.355,3.912,10.671,1.334c2.545-1.979,5.398-3.279,8.348-3.968c-1.156,6.552-2.07,13.157-2.708,19.81
			c-0.401,4.18,2.662,7.895,6.844,8.295c0.247,0.023,0.492,0.036,0.735,0.036c3.872,0,7.182-2.945,7.56-6.878
			c0.622-6.492,1.522-12.938,2.668-19.327c2.639,1.391,5.038,3.334,6.986,5.837c1.5,1.927,3.741,2.936,6.007,2.936
			c1.631,0,3.275-0.523,4.663-1.602c3.315-2.578,3.913-7.356,1.333-10.671c-4.243-5.456-9.726-9.387-15.745-11.718
			c1.919-7.759,4.226-15.408,6.9-22.92c1.689,1.443,3.138,3.175,4.249,5.176c1.39,2.502,3.981,3.913,6.654,3.913
			c1.249,0,2.516-0.308,3.685-0.958c3.671-2.039,4.994-6.668,2.954-10.339c-2.863-5.153-6.922-9.377-11.8-12.397
			c3.157-7.322,6.666-14.492,10.533-21.471c0.934,1.325,1.68,2.794,2.207,4.376c1.063,3.187,4.029,5.201,7.213,5.201
			c0.797,0,1.608-0.127,2.406-0.392c3.984-1.328,6.137-5.634,4.81-9.619c-1.709-5.128-4.62-9.637-8.462-13.227
			c4.385-6.812,9.12-13.41,14.187-19.769c0.479,1.234,0.823,2.54,0.976,3.917c0.432,3.888,3.724,6.764,7.548,6.764
			c0.28,0,0.564-0.015,0.849-0.048c4.174-0.464,7.181-4.224,6.718-8.397c-0.604-5.439-2.602-10.39-5.589-14.547
			c2.426-2.655,4.911-5.262,7.462-7.812c3.853-3.853,7.822-7.548,11.887-11.106c0.252,1.434,0.318,2.922,0.15,4.441
			c-0.463,4.174,2.544,7.933,6.718,8.397c0.285,0.031,0.569,0.048,0.849,0.048c3.823,0,7.116-2.876,7.548-6.764
			c0.647-5.821-0.377-11.449-2.688-16.403c7.356-5.617,14.99-10.783,22.875-15.479c0.007,1.806-0.264,3.62-0.852,5.383
			c-1.328,3.984,0.825,8.29,4.81,9.618c0.798,0.266,1.608,0.392,2.406,0.392c3.184,0,6.15-2.016,7.213-5.201
			c1.972-5.916,2.168-12.132,0.647-18.031c7.926-4.017,16.071-7.573,24.391-10.677c-0.304,2.326-1.037,4.599-2.211,6.711
			c-2.04,3.671-0.717,8.3,2.954,10.339c1.17,0.65,2.436,0.958,3.686,0.958c2.672,0,5.264-1.411,6.654-3.913
			c3.302-5.944,4.726-12.584,4.189-19.212c8.362-2.491,16.875-4.541,25.516-6.112c-0.69,2.95-1.989,5.803-3.968,8.347
			c-2.578,3.315-1.981,8.093,1.334,10.671c1.388,1.08,3.031,1.602,4.663,1.602c2.266,0,4.509-1.009,6.008-2.936
			c4.65-5.979,7.163-12.952,7.661-19.993c5.861-0.671,11.768-1.131,17.713-1.376c-2.486,60.519-27.218,117.059-70.303,160.146
			c-45.479,45.478-105.946,70.525-170.264,70.525c-64.318,0-124.786-25.046-170.266-70.526
			c-22.987-22.987-40.785-49.787-52.895-79.652c-1.578-3.891-6.013-5.768-9.904-4.189c-3.892,1.578-5.767,6.012-4.189,9.904
			c12.88,31.761,31.8,60.256,56.235,84.69C123.326,485.371,187.613,512,255.994,512c68.38,0,132.667-26.628,181.019-74.981
			C485.365,388.667,511.994,324.38,511.994,256C511.994,187.62,485.365,123.332,437.012,74.981z M244.497,33.124
			c-7.226,0.508-14.143,3.138-19.99,7.685c-3.315,2.578-3.913,7.356-1.333,10.671c2.577,3.314,7.355,3.912,10.67,1.334
			c2.503-1.947,5.345-3.274,8.342-3.978c-1.572,8.652-3.626,17.176-6.122,25.549c-6.453-0.516-13.122,0.792-19.195,4.166
			c-3.671,2.039-4.994,6.668-2.954,10.339c2.039,3.67,6.668,4.994,10.339,2.954c2.137-1.187,4.409-1.897,6.698-2.195
			c-3.102,8.314-6.657,16.452-10.671,24.372c-5.896-1.518-12.109-1.322-18.022,0.65c-3.984,1.328-6.137,5.634-4.81,9.619
			c1.328,3.983,5.633,6.137,9.618,4.809c1.76-0.587,3.571-0.858,5.372-0.852c-4.695,7.884-9.862,15.517-15.479,22.872
			c-4.954-2.308-10.579-3.331-16.394-2.685c-4.174,0.464-7.181,4.224-6.718,8.397c0.464,4.174,4.219,7.18,8.397,6.718
			c1.515-0.168,3-0.102,4.43,0.148c-3.557,4.062-7.25,8.03-11.102,11.881c-2.551,2.551-5.155,5.029-7.799,7.45
			c-4.245-3.047-9.218-4.976-14.553-5.569c-4.163-0.461-7.932,2.544-8.397,6.718c-0.464,4.174,2.544,7.933,6.718,8.397
			c1.37,0.152,2.687,0.493,3.939,0.977c-6.366,5.097-12.954,9.848-19.744,14.239c-3.598-3.867-8.124-6.798-13.275-8.514
			c-3.987-1.327-8.29,0.825-9.619,4.81c-1.328,3.984,0.825,8.29,4.81,9.619c1.614,0.538,3.111,1.305,4.457,2.266
			c-6.991,3.888-14.162,7.416-21.49,10.575c-3.023-4.924-7.269-9.018-12.458-11.902c-3.671-2.04-8.299-0.717-10.339,2.954
			c-2.04,3.671-0.717,8.3,2.954,10.339c2.035,1.13,3.795,2.609,5.252,4.336c-7.516,2.667-15.173,4.958-22.949,6.865
			c-2.382-6.183-6.403-11.625-11.767-15.797c-3.315-2.578-8.094-1.981-10.67,1.334c-2.578,3.315-1.981,8.092,1.333,10.671
			c2.477,1.926,4.447,4.323,5.864,7.02c-10.635,1.887-21.456,3.06-32.404,3.51c2.548-59.438,27.035-116.886,70.291-160.141
			c43.085-43.085,99.625-67.816,160.143-70.303C245.626,21.369,245.167,27.27,244.497,33.124z"/>
	</g>
</g>
<g>
</g>
<g>
</g>
<g>
</g>
<g>
</g>
<g>
</g>
<g>
</g>
<g>
</g>
<g>
</g>
<g>
</g>
<g>
</g>
<g>
</g>
<g>
</g>
<g>
</g>
<g>
</g>
<g>
</g>
</svg>
