<?xml version="1.0" encoding="iso-8859-1"?>
<!-- Generator: Adobe Illustrator 19.0.0, SVG Export Plug-In . SVG Version: 6.00 Build 0)  -->
<svg version="1.1" id="Layer_1" xmlns="http://www.w3.org/2000/svg" xmlns:xlink="http://www.w3.org/1999/xlink" x="0px" y="0px"
	 viewBox="0 0 512 512" style="enable-background:new 0 0 512 512;" xml:space="preserve">
<path style="fill:#FCF6D6;" d="M511.794,266.206c-2.456,62.067-27.376,123.413-74.773,170.809s-108.743,72.317-170.809,74.773
	c-5.224,0.209-10.449,0.261-15.673,0.146c-63.676-1.348-126.955-26.321-175.553-74.919S1.413,325.139,0.065,261.462
	c-0.115-5.224-0.063-10.449,0.146-15.673C2.667,183.722,27.588,122.376,74.985,74.98C122.371,27.593,183.717,2.662,245.784,0.207
	c5.214-0.209,10.449-0.261,15.673-0.146c63.687,1.348,126.966,26.321,175.564,74.919s73.571,111.877,74.919,175.553
	C512.055,255.757,512.003,260.982,511.794,266.206z"/>
<path style="fill:#EAE3C5;" d="M183.122,437.026c-99.974-99.974-99.974-262.065,0-362.038
	c36.151-36.151,80.427-59.222,126.949-69.228C227.94-11.905,138.804,11.164,74.98,74.988c-99.974,99.974-99.974,262.065,0,362.038
	c63.822,63.822,152.959,86.893,235.091,69.228C263.549,496.248,219.273,473.178,183.122,437.026z"/>
<g>
	<path style="fill:#C1BBA0;" d="M261.457,0.06v0.031c-0.627,69.528-28.066,134.917-77.26,184.111S69.624,260.825,0.086,261.462
		H0.065c-0.115-5.224-0.063-10.449,0.146-15.673c65.306-0.669,126.694-26.467,172.91-72.673
		c46.205-46.205,72.004-107.604,72.662-172.91C250.998-0.002,256.233-0.055,261.457,0.06z"/>
	<path style="fill:#C1BBA0;" d="M511.794,266.206c-65.306,0.669-126.704,26.467-172.91,72.673
		c-46.216,46.205-72.014,107.604-72.673,172.91c-5.224,0.209-10.449,0.261-15.673,0.146v-0.01
		c0.627-69.548,28.066-134.938,77.26-184.132s114.583-76.633,184.121-77.26h0.021C512.055,255.757,512.003,260.982,511.794,266.206z
		"/>
</g>
<g>
	<path style="fill:#EA5149;" d="M471.59,291.478c-1.681,0-3.375-0.538-4.805-1.651c-3.417-2.657-4.032-7.581-1.375-10.998
		c7.566-9.728,5.808-23.798-3.92-31.364c-3.417-2.657-4.032-7.581-1.375-10.998c2.656-3.417,7.581-4.032,10.998-1.375
		c16.55,12.872,19.542,36.809,6.671,53.358C476.238,290.44,473.927,291.478,471.59,291.478z"/>
	<path style="fill:#EA5149;" d="M432.027,300.36c-1.287,0-2.593-0.318-3.799-0.987c-3.784-2.102-5.146-6.873-3.045-10.656
		c2.519-4.535,3.122-9.779,1.697-14.768c-1.425-4.988-4.707-9.122-9.242-11.642c-3.784-2.101-5.147-6.873-3.045-10.656
		c2.101-3.784,6.873-5.147,10.656-3.045c8.195,4.553,14.126,12.024,16.701,21.037c2.576,9.013,1.486,18.491-3.067,26.685
		C437.452,298.904,434.78,300.36,432.027,300.36z"/>
	<path style="fill:#EA5149;" d="M394.225,316.746c-0.821,0-1.657-0.131-2.48-0.404c-4.106-1.369-6.325-5.807-4.957-9.913
		c1.46-4.378,1.127-9.063-0.937-13.192s-5.613-7.206-9.991-8.665c-4.106-1.369-6.325-5.806-4.957-9.913
		c1.37-4.105,5.809-6.326,9.913-4.956c8.351,2.784,15.118,8.653,19.054,16.525c3.936,7.873,4.571,16.807,1.788,25.158
		C400.563,314.669,397.506,316.746,394.225,316.746z"/>
	<path style="fill:#EA5149;" d="M359.083,340.711c-0.289,0-0.581-0.016-0.875-0.049c-4.302-0.479-7.401-4.353-6.923-8.654
		c0.982-8.844-5.413-16.839-14.257-17.821c-4.302-0.479-7.401-4.353-6.923-8.654c0.479-4.302,4.361-7.401,8.654-6.923
		c17.434,1.937,30.041,17.696,28.104,35.129C366.417,337.746,363.023,340.711,359.083,340.711z"/>
	<path style="fill:#EA5149;" d="M329.151,370.624c-3.94,0-7.334-2.964-7.779-6.972c-0.982-8.845-8.98-15.237-17.822-14.258
		c-4.307,0.476-8.176-2.622-8.654-6.924c-0.479-4.302,2.622-8.176,6.923-8.654c17.425-1.934,33.193,10.669,35.131,28.104
		c0.479,4.302-2.622,8.176-6.923,8.654C329.732,370.608,329.439,370.624,329.151,370.624z"/>
	<path style="fill:#EA5149;" d="M307.029,403.939c-3.282,0-6.338-2.077-7.433-5.36c-1.459-4.379-4.537-7.927-8.665-9.991
		c-4.128-2.065-8.814-2.397-13.192-0.937c-4.105,1.37-8.544-0.851-9.913-4.956c-1.369-4.106,0.851-8.544,4.957-9.913
		c8.351-2.784,17.285-2.148,25.158,1.788c7.873,3.936,13.741,10.703,16.525,19.054c1.369,4.106-0.851,8.544-4.957,9.913
		C308.686,403.809,307.85,403.939,307.029,403.939z"/>
	<path style="fill:#EA5149;" d="M291.783,440.617c-2.754,0-5.425-1.454-6.858-4.032c-2.519-4.535-6.654-7.817-11.642-9.242
		c-4.987-1.425-10.233-0.822-14.768,1.697c-3.785,2.101-8.556,0.739-10.656-3.045c-2.102-3.784-0.739-8.555,3.045-10.656
		c8.195-4.553,17.67-5.641,26.686-3.066c9.013,2.576,16.484,8.507,21.037,16.702c2.102,3.784,0.739,8.555-3.045,10.656
		C294.376,440.3,293.07,440.617,291.783,440.617z"/>
	<path style="fill:#EA5149;" d="M283.482,479.598c-2.335,0-4.647-1.04-6.191-3.026c-7.567-9.728-21.637-11.487-31.365-3.92
		c-3.418,2.657-8.34,2.042-10.998-1.375c-2.657-3.417-2.042-8.34,1.375-10.998c16.55-12.871,40.487-9.88,53.358,6.67
		c2.657,3.417,2.042,8.34-1.374,10.998C286.857,479.059,285.164,479.598,283.482,479.598z"/>
	<path style="fill:#EA5149;" d="M270.727,53.539c-2.335,0-4.647-1.04-6.192-3.026c-3.664-4.712-8.946-7.716-14.869-8.456
		c-5.929-0.742-11.781,0.87-16.494,4.536c-3.417,2.657-8.341,2.042-10.997-1.375c-2.657-3.417-2.042-8.339,1.374-10.998
		c8.018-6.236,17.986-8.976,28.06-7.716c10.078,1.26,19.062,6.369,25.298,14.386c2.657,3.417,2.042,8.34-1.375,10.998
		C274.103,53,272.409,53.539,270.727,53.539z"/>
	<path style="fill:#EA5149;" d="M256.555,98.397c-2.754,0-5.425-1.454-6.858-4.032c-5.201-9.361-17.046-12.747-26.41-7.545
		c-3.785,2.102-8.556,0.739-10.656-3.045c-2.102-3.784-0.739-8.555,3.045-10.656c16.917-9.399,38.325-3.281,47.723,13.635
		c2.102,3.784,0.739,8.555-3.045,10.656C259.149,98.079,257.843,98.397,256.555,98.397z"/>
	<path style="fill:#EA5149;" d="M234.866,141.503c-3.282,0-6.338-2.076-7.433-5.36c-1.46-4.379-4.537-7.928-8.665-9.991
		c-4.127-2.065-8.814-2.397-13.192-0.937c-4.107,1.369-8.544-0.851-9.913-4.956c-1.369-4.106,0.851-8.544,4.957-9.913
		c8.352-2.784,17.286-2.148,25.158,1.788c7.873,3.936,13.741,10.703,16.525,19.054c1.369,4.106-0.851,8.544-4.957,9.913
		C236.524,141.373,235.688,141.503,234.866,141.503z"/>
	<path style="fill:#EA5149;" d="M205.596,181.948c-3.94,0-7.334-2.964-7.779-6.972c-0.983-8.844-8.973-15.241-17.822-14.258
		c-4.307,0.476-8.176-2.622-8.654-6.923c-0.479-4.302,2.622-8.176,6.924-8.654c17.429-1.936,33.193,10.671,35.131,28.104
		c0.479,4.302-2.622,8.176-6.923,8.654C206.177,181.931,205.884,181.948,205.596,181.948z"/>
	<path style="fill:#EA5149;" d="M170.407,217.156c-0.289,0-0.581-0.016-0.875-0.049c-4.302-0.479-7.401-4.353-6.924-8.654
		c0.476-4.284-0.745-8.497-3.438-11.864c-2.693-3.366-6.535-5.482-10.819-5.958c-4.302-0.478-7.401-4.352-6.924-8.654
		c0.479-4.302,4.363-7.399,8.654-6.923c8.446,0.938,16.02,5.108,21.328,11.745c5.308,6.636,7.714,14.94,6.776,23.386
		C177.74,214.191,174.347,217.156,170.407,217.156z"/>
	<path style="fill:#EA5149;" d="M131.788,244.582c-0.821,0-1.657-0.131-2.48-0.404c-4.106-1.369-6.325-5.807-4.957-9.913
		c1.46-4.379,1.127-9.064-0.937-13.192c-2.065-4.127-5.612-7.206-9.991-8.665c-4.106-1.369-6.325-5.807-4.957-9.913
		c1.369-4.105,5.804-6.325,9.913-4.957c8.351,2.784,15.118,8.653,19.054,16.525c3.936,7.872,4.571,16.807,1.788,25.158
		C138.128,242.506,135.069,244.582,131.788,244.582z"/>
	<path style="fill:#EA5149;" d="M89.806,265.131c-1.287,0-2.593-0.318-3.799-0.987c-3.784-2.102-5.146-6.873-3.045-10.656
		c2.519-4.535,3.122-9.779,1.697-14.768s-4.707-9.122-9.242-11.642c-3.784-2.101-5.147-6.873-3.045-10.656
		c2.102-3.784,6.873-5.147,10.656-3.045c8.195,4.553,14.126,12.024,16.701,21.037c2.576,9.013,1.486,18.491-3.067,26.685
		C95.233,263.677,92.561,265.131,89.806,265.131z"/>
	<path style="fill:#EA5149;" d="M45.531,278.724c-1.681,0-3.375-0.539-4.805-1.651c-3.417-2.657-4.032-7.581-1.374-10.998
		c3.666-4.712,5.276-10.57,4.535-16.494c-0.74-5.924-3.744-11.204-8.455-14.87c-3.417-2.657-4.032-7.581-1.374-10.998
		c2.656-3.417,7.58-4.032,10.997-1.375c8.016,6.236,13.126,15.22,14.386,25.298c1.26,10.078-1.481,20.043-7.717,28.061
		C50.179,277.684,47.867,278.724,45.531,278.724z"/>
</g>
<g>
</g>
<g>
</g>
<g>
</g>
<g>
</g>
<g>
</g>
<g>
</g>
<g>
</g>
<g>
</g>
<g>
</g>
<g>
</g>
<g>
</g>
<g>
</g>
<g>
</g>
<g>
</g>
<g>
</g>
</svg>
