<svg height="496pt" viewBox="0 0 496 496" width="496pt" xmlns="http://www.w3.org/2000/svg"><g fill="#f0bc5e"><path d="m224 192h48c17.726562 0 32.59375-11.617188 37.839844-27.59375-19.03125-7.972656-39.910156-12.40625-61.839844-12.40625s-42.808594 4.433594-61.839844 12.40625c5.246094 15.976562 20.113282 27.59375 37.839844 27.59375zm0 0"/><path d="m338.175781 179.863281c-11.449219 26.226563-38.503906 44.136719-68.640625 44.136719h-5.535156v247.191406c80.847656-8.03125 144-76.230468 144-159.191406 0-54.910156-27.679688-103.328125-69.824219-132.136719zm0 0"/><path d="m176 440h24v-56h-24v-32h56v-128h-8c-29.839844 0-55.359375-18.191406-66.28125-44.0625-42.078125 28.832031-69.71875 77.199219-69.71875 132.0625 0 62.433594 35.839844 116.375 88 142.742188zm0 0"/></g><path d="m272 104h-4.945312l-3.054688 6.113281c-3.046875 6.09375-9.175781 9.886719-16 9.886719s-12.953125-3.792969-16-9.886719l-3.054688-6.113281h-4.945312c-26.472656 0-48 21.527344-48 48s21.527344 48 48 48h48c26.472656 0 48-21.527344 48-48s-21.527344-48-48-48zm0 80h-48c-17.648438 0-32-14.351562-32-32 0-16.089844 11.9375-29.449219 27.414062-31.671875 6.195313 9.75 16.851563 15.671875 28.585938 15.671875s22.390625-5.921875 28.585938-15.671875c15.476562 2.222656 27.414062 15.582031 27.414062 31.671875 0 17.648438-14.351562 32-32 32zm0 0"/><path d="m272 72h-45.535156c-43.433594 0-79.585938 32.816406-82.296875 74.695312-1.449219 22.394532 6.167969 43.703126 21.449219 60.007813 15.078124 16.082031 36.359374 25.296875 58.382812 25.296875v112h-56v48h24v40h-24v48h57.472656c3.3125 9.289062 12.113282 16 22.527344 16 13.230469 0 24-10.769531 24-24v-240.039062c42.328125-1.207032 77.167969-33.5625 79.832031-74.65625 1.449219-22.394532-6.167969-43.703126-21.449219-60.007813-15.078124-16.082031-36.359374-25.296875-58.382812-25.296875zm-24 408c-4.40625 0-8-3.585938-8-8v-48h-16v40h-40v-16h24v-72h-24v-16h40v40h16v-112h16v184c0 4.414062-3.59375 8-8 8zm-8-224h16v16h-16zm95.855469-99.726562c-2.167969 33.496093-31.296875 59.726562-66.320313 59.726562h-13.535156v24h-16v-24h-16c-17.878906 0-34.472656-7.183594-46.703125-20.238281-12.226563-13.042969-18.320313-30.105469-17.160156-48.035157 2.175781-33.496093 31.304687-59.726562 66.328125-59.726562h45.535156c17.878906 0 34.472656 7.183594 46.703125 20.238281 12.226563 13.042969 18.3125 30.105469 17.152344 48.035157zm0 0"/><path d="m133.457031 6.71875 14.777344-6.121094 6.125 14.777344-14.78125 6.125zm0 0"/><path d="m145.703125 36.28125 14.777344-6.125 6.125 14.78125-14.78125 6.121094zm0 0"/><path d="m8.59375 148.242188 6.113281-14.785157 14.785157 6.117188-6.117188 14.785156zm0 0"/><path d="m38.152344 160.488281 6.125-14.78125 14.78125 6.125-6.125 14.78125zm0 0"/><path d="m8.597656 347.753906 14.785156-6.117187 6.117188 14.78125-14.785156 6.121093zm0 0"/><path d="m38.148438 335.503906 14.78125-6.125 6.125 14.78125-14.78125 6.125zm0 0"/><path d="m466.488281 356.433594 6.117188-14.785156 14.785156 6.117187-6.117187 14.785156zm0 0"/><path d="m436.921875 344.175781 6.125-14.78125 14.777344 6.125-6.125 14.78125zm0 0"/><path d="m466.484375 139.578125 14.785156-6.117187 6.117188 14.785156-14.785157 6.117187zm0 0"/><path d="m436.925781 151.832031 14.78125-6.125 6.125 14.78125-14.78125 6.125zm0 0"/><path d="m341.632812 15.386719 6.125-14.78125 14.78125 6.125-6.125 14.78125zm0 0"/><path d="m329.382812 44.949219 6.125-14.78125 14.78125 6.125-6.125 14.78125zm0 0"/><path d="m27.386719 38.695312 11.3125-11.3125 67.882812 67.882813-11.3125 11.3125zm0 0"/><path d="m0 240h80v16h-80zm0 0"/><path d="m416 240h80v16h-80zm0 0"/><path d="m389.417969 95.273438 67.882812-67.882813 11.3125 11.3125-67.882812 67.882813zm0 0"/><path d="m240 0h16v16h-16zm0 0"/><path d="m240 32h16v16h-16zm0 0"/></svg>