<svg height="496pt" viewBox="0 0 496 496" width="496pt" xmlns="http://www.w3.org/2000/svg"><path d="m224 200h48c26.472656 0 48-21.527344 48-48s-21.527344-48-48-48h-4.945312l-3.054688 6.113281c-3.046875 6.09375-9.175781 9.886719-16 9.886719s-12.953125-3.792969-16-9.886719l-3.054688-6.113281h-4.945312c-26.472656 0-48 21.527344-48 48s21.527344 48 48 48zm-4.585938-79.671875c6.195313 9.75 16.851563 15.671875 28.585938 15.671875s22.390625-5.921875 28.585938-15.671875c15.476562 2.222656 27.414062 15.582031 27.414062 31.671875 0 17.648438-14.351562 32-32 32h-48c-17.648438 0-32-14.351562-32-32 0-16.089844 11.9375-29.449219 27.414062-31.671875zm0 0"/><path d="m344.785156 184.753906c3.917969-8.464844 6.414063-17.699218 7.046875-27.449218 1.449219-22.394532-6.167969-43.703126-21.449219-60.007813-15.078124-16.082031-36.359374-25.296875-58.382812-25.296875h-45.535156c-43.433594 0-79.585938 32.816406-82.296875 74.695312-.863281 13.402344 1.574219 26.394532 6.902343 38.183594-39.589843 30.226563-63.070312 77.199219-63.070312 127.121094 0 57.320312 30.566406 109.871094 80 138.472656v29.527344h57.472656c3.3125 9.289062 12.113282 16 22.527344 16 13.230469 0 24-10.769531 24-24v-1.992188c78-11.695312 136-78.289062 136-158.007812 0-50.007812-23.527344-97.023438-63.214844-127.246094zm-184.640625-37.027344c2.167969-33.496093 31.296875-59.726562 66.320313-59.726562h45.535156c17.878906 0 34.472656 7.183594 46.703125 20.238281 12.226563 13.042969 18.320313 30.105469 17.160156 48.035157-2.175781 33.496093-31.304687 59.726562-66.328125 59.726562h-13.535156v24h-16v-24h-16c-17.878906 0-34.472656-7.183594-46.703125-20.238281-12.226563-13.042969-18.3125-30.105469-17.152344-48.035157zm79.855469 108.273438h16v16h-16zm-136 56c0-44.246094 20.480469-85.96875 55.167969-113.214844 1.984375 2.734375 4.097656 5.40625 6.449219 7.917969 15.078124 16.082031 36.359374 25.296875 58.382812 25.296875v112h-56v48h24v40h-23.472656c-40.070313-26.535156-64.527344-71.375-64.527344-120zm144 168c-4.40625 0-8-3.585938-8-8v-48h-16v40h-40v-16h24v-72h-24v-16h40v40h16v-112h16v184c0 4.414062-3.59375 8-8 8zm24-26.152344v-221.886718c26.488281-.761719 50.03125-13.714844 64.609375-33.367188 34.824219 27.246094 55.390625 69.039062 55.390625 113.40625 0 70.9375-51.015625 130.328125-120 141.847656zm0 0"/><path d="m133.457031 6.71875 14.777344-6.121094 6.125 14.777344-14.78125 6.125zm0 0"/><path d="m145.703125 36.28125 14.777344-6.125 6.125 14.78125-14.78125 6.121094zm0 0"/><path d="m8.59375 148.242188 6.113281-14.785157 14.785157 6.117188-6.117188 14.785156zm0 0"/><path d="m38.152344 160.488281 6.125-14.78125 14.78125 6.125-6.125 14.78125zm0 0"/><path d="m8.597656 347.753906 14.785156-6.117187 6.117188 14.78125-14.785156 6.121093zm0 0"/><path d="m38.148438 335.503906 14.78125-6.125 6.125 14.78125-14.78125 6.125zm0 0"/><path d="m466.488281 356.433594 6.117188-14.785156 14.785156 6.117187-6.117187 14.785156zm0 0"/><path d="m436.921875 344.175781 6.125-14.78125 14.777344 6.125-6.125 14.78125zm0 0"/><path d="m466.484375 139.578125 14.785156-6.117187 6.117188 14.785156-14.785157 6.117187zm0 0"/><path d="m436.925781 151.832031 14.78125-6.125 6.125 14.78125-14.78125 6.125zm0 0"/><path d="m341.632812 15.386719 6.125-14.78125 14.78125 6.125-6.125 14.78125zm0 0"/><path d="m329.382812 44.949219 6.125-14.78125 14.78125 6.125-6.125 14.78125zm0 0"/><path d="m27.386719 38.695312 11.3125-11.3125 67.882812 67.882813-11.3125 11.3125zm0 0"/><path d="m0 240h80v16h-80zm0 0"/><path d="m416 240h80v16h-80zm0 0"/><path d="m389.417969 95.273438 67.882812-67.882813 11.3125 11.3125-67.882812 67.882813zm0 0"/><path d="m240 0h16v16h-16zm0 0"/><path d="m240 32h16v16h-16zm0 0"/></svg>