<?xml version="1.0"?>
<svg xmlns="http://www.w3.org/2000/svg" xmlns:xlink="http://www.w3.org/1999/xlink" version="1.1" id="Capa_1" x="0px" y="0px" viewBox="0 0 57.284 57.284" style="enable-background:new 0 0 57.284 57.284;" xml:space="preserve" width="512px" height="512px"><g><g>
	<path d="M39.923,30.54c0.054,0.402,0.01,0.85-0.17,1.338c-2.645,7.182-2.947,14.42-0.875,21.793   c1.021,3.629-4.609,5.168-5.628,1.551c-1.86-6.616-2.087-13.362-0.593-19.93c-1.851-0.84-3.814-1.326-5.813-1.625   c-1.112,2.923-2.009,5.986-1.868,9.107c0.17,3.764-5.667,3.746-5.836,0c-0.205-4.506,1.334-8.924,3.022-13.031   c0.461-1.125,1.428-2.282,2.813-2.144c1.792,0.179,3.527,0.439,5.225,0.832c0.841-2.777,0.91-5.462-0.07-8.186   c-1.996,0.804-4.038,1.512-5.993,2.31c-1.127,0.46-2.635-0.49-2.871-1.63c-0.507-2.455-1.085-4.894-1.371-7.377h-0.02   c0,0-5.369-2.141-5.246-6.909c0.093-3.619,2.385-2.98,3.815-2.146s2.979-2.503,5.364,0c2.384,2.503,3.457-1.476,3.814,1.229   c0.358,2.704-1.312,7.024-2.741,7.826h-0.299c0.157,1.208,0.391,2.404,0.644,3.598c1.384-0.525,2.773-1.052,4.13-1.641   c0.283-1.151,0.985-2.181,2.207-2.897c2.123-1.245,5.701-0.711,6.79,1.768C40.675,19.661,41.489,24.997,39.923,30.54z M39.42,3.837   c-0.27-0.087-0.535-0.162-0.795-0.225c-0.52-1.531-1.724-2.809-3.379-3.349c-2.791-0.91-5.791,0.614-6.701,3.405   s0.614,5.791,3.405,6.701c2.79,0.91,5.79-0.614,6.7-3.404c0.05-0.153,0.089-0.306,0.124-0.459c1.928,0.586,3.633,0.517,3.859-0.179   C42.868,5.607,41.429,4.493,39.42,3.837z" data-original="#100F10" class="active-path" data-old_color="#100F10" fill="#FFC43D"/>
</g></g> </svg>
